<?xml version="1.0" standalone="no"?>
<!DOCTYPE svg PUBLIC "-//W3C//DTD SVG 20010904//EN"
 "http://www.w3.org/TR/2001/REC-SVG-20010904/DTD/svg10.dtd">
<svg version="1.0" xmlns="http://www.w3.org/2000/svg"
 width="320.000000pt" height="320.000000pt" viewBox="0 0 320.000000 320.000000"
 preserveAspectRatio="xMidYMid meet">
<metadata>
Created by potrace 1.14, written by Peter Selinger 2001-2017
</metadata>
<g transform="translate(0.000000,320.000000) scale(0.100000,-0.100000)"
fill="#000000" stroke="none">
<path d="M1075 2400 c-8 -26 11 -60 35 -60 24 0 41 30 33 58 -7 29 -59 31 -68
2z m45 -15 c0 -14 -4 -25 -10 -25 -5 0 -10 11 -10 25 0 14 5 25 10 25 6 0 10
-11 10 -25z"/>
<path d="M1158 2379 c-3 -35 -1 -40 14 -36 10 3 21 1 24 -4 11 -18 19 -8 21
28 2 38 -9 53 -38 53 -12 0 -18 -11 -21 -41z m42 11 c0 -5 -4 -10 -10 -10 -5
0 -10 5 -10 10 0 6 5 10 10 10 6 0 10 -4 10 -10z"/>
<path d="M990 2376 c0 -41 32 -59 58 -32 19 19 9 34 -12 17 -10 -9 -16 -9 -21
-1 -11 17 3 40 20 34 8 -3 15 -1 15 5 0 6 -13 11 -30 11 -28 0 -30 -3 -30 -34z"/>
<path d="M1240 2393 c0 -10 -3 -28 -6 -39 -4 -16 0 -23 15 -27 43 -11 70 52
32 73 -28 15 -41 12 -41 -7z m34 -36 c-9 -24 -23 -11 -17 14 3 12 9 17 15 11
5 -5 6 -16 2 -25z"/>
<path d="M917 2393 c-2 -5 0 -23 5 -40 9 -33 39 -46 53 -23 3 6 -1 10 -11 10
-13 0 -14 3 -4 15 10 12 10 15 -4 15 -19 0 -21 16 -3 23 6 3 2 6 -10 6 -12 1
-24 -2 -26 -6z"/>
<path d="M1316 2378 c-12 -38 -13 -59 -4 -64 13 -8 15 -5 23 39 5 25 4 37 -4
37 -6 0 -13 -6 -15 -12z"/>
<path d="M858 2372 c-21 -4 -21 -6 -6 -49 11 -32 28 -45 28 -22 0 6 9 8 20 4
11 -4 20 -2 20 4 0 6 -5 11 -10 11 -6 0 -10 6 -9 13 4 34 -9 47 -43 39z m27
-21 c3 -5 1 -12 -5 -16 -5 -3 -10 1 -10 9 0 18 6 21 15 7z"/>
<path d="M1357 2373 c-2 -5 -7 -20 -11 -35 -7 -30 8 -47 19 -20 6 15 8 14 16
-7 12 -29 24 -19 34 27 6 31 5 33 -14 27 -12 -4 -21 -2 -21 4 0 13 -17 15 -23
4z"/>
<path d="M1436 2344 c-33 -32 -3 -84 38 -68 20 8 21 34 1 34 -8 0 -15 -5 -15
-11 0 -5 -5 -7 -10 -4 -7 4 -6 13 1 26 8 16 13 18 25 8 21 -17 28 -5 9 15 -20
20 -29 20 -49 0z"/>
<path d="M1515 2320 c-4 -6 0 -19 9 -29 9 -10 16 -22 16 -27 0 -5 -7 0 -15 10
-16 22 -31 16 -22 -9 8 -19 57 -20 57 -1 0 7 -7 19 -15 26 -8 7 -12 17 -9 22
3 5 12 1 20 -9 14 -17 15 -17 12 2 -4 22 -42 33 -53 15z"/>
<path d="M750 2310 c-12 -8 -12 -12 0 -36 19 -35 38 -41 58 -19 16 16 16 17
-5 10 -14 -4 -23 -2 -23 4 0 6 5 11 10 11 6 0 10 5 10 11 0 6 -7 8 -16 5 -12
-4 -15 -2 -10 9 6 17 -2 19 -24 5z"/>
<path d="M1012 2309 c-128 -21 -250 -106 -298 -208 -38 -78 -44 -181 -16 -237
35 -69 43 -71 120 -35 89 41 199 68 333 83 144 16 291 2 553 -51 251 -52 293
-52 439 -4 120 39 216 48 338 30 60 -9 89 5 89 40 0 25 -55 68 -115 91 -101
39 -288 26 -405 -27 -52 -24 -80 -26 -80 -8 0 21 96 63 182 81 102 21 185 20
283 -3 44 -11 83 -17 87 -15 16 10 7 51 -16 73 -89 84 -349 93 -550 20 -87
-32 -124 -26 -65 10 112 68 341 100 472 66 73 -19 97 -19 97 0 0 24 -52 65
-105 81 -27 8 -93 18 -147 21 -120 7 -226 -15 -442 -94 -243 -88 -303 -103
-421 -103 -112 0 -135 5 -135 26 0 16 -4 16 119 14 89 -1 241 24 241 41 0 12
-251 88 -344 104 -97 16 -134 17 -214 4z"/>
<path d="M697 2269 c-9 -6 -17 -19 -17 -31 0 -17 4 -20 30 -14 18 3 30 1 30
-5 0 -6 -4 -8 -9 -4 -5 3 -12 1 -15 -4 -11 -17 10 -21 32 -5 32 22 18 48 -22
40 -28 -5 -29 -4 -13 8 22 17 9 28 -16 15z"/>
<path d="M635 2190 c-6 -10 33 -68 48 -69 4 -1 7 6 7 14 0 9 7 18 15 21 8 4
15 10 15 14 0 8 -9 12 -62 26 -9 3 -19 0 -23 -6z"/>
<path d="M602 2103 c4 -16 2 -23 -8 -23 -23 0 -16 -17 10 -24 13 -3 32 -9 42
-13 14 -5 16 -3 11 12 -5 11 -1 23 10 32 17 12 16 13 -8 11 -14 -2 -34 4 -44
12 -17 14 -18 13 -13 -7z"/>
<path d="M601 2021 c-37 -10 -36 -26 3 -45 19 -9 36 -16 38 -16 2 0 4 16 5 35
1 36 -3 38 -46 26z"/>
<path d="M601 1941 c-32 -9 -38 -28 -11 -36 20 -6 21 -7 3 -20 -25 -19 -6 -34
35 -28 28 5 47 23 23 23 -12 0 -21 39 -10 46 13 8 11 24 -3 23 -7 -1 -24 -4
-37 -8z"/>
<path d="M1040 1860 c-221 -47 -383 -144 -448 -267 -12 -22 -17 -83 -7 -83 3
0 33 22 65 50 33 27 80 61 105 75 63 37 193 91 237 98 43 7 61 -8 26 -22 -13
-5 -59 -23 -103 -40 -203 -79 -393 -258 -349 -329 18 -29 33 -24 86 26 104 98
340 222 424 222 52 0 21 -26 -63 -52 -108 -33 -234 -104 -312 -175 -100 -90
-127 -183 -53 -183 31 0 66 20 139 82 67 55 201 123 301 150 65 18 104 22 247
22 203 0 276 -12 535 -88 217 -63 308 -80 382 -71 76 9 169 57 218 113 66 74
75 97 75 187 0 67 -5 88 -27 131 -47 90 -138 154 -219 154 -15 0 -80 -16 -145
-36 -167 -51 -217 -53 -394 -14 -257 57 -352 70 -499 69 -91 0 -164 -6 -221
-19z"/>
<path d="M622 1828 c-29 -29 -1 -71 40 -60 19 5 34 44 23 61 -8 15 -48 14 -63
-1z m48 -23 c-13 -16 -40 -20 -40 -7 0 14 12 22 33 22 16 0 17 -3 7 -15z"/>
<path d="M2575 1440 c-3 -6 1 -7 9 -4 18 7 21 14 7 14 -6 0 -13 -4 -16 -10z"/>
<path d="M1203 1390 c-98 -14 -182 -38 -258 -74 -209 -98 -217 -185 -52 -516
69 -139 70 -140 279 -140 86 0 159 4 162 8 7 12 -123 142 -148 147 -11 3 -45
6 -75 7 -33 2 -56 8 -59 16 -3 9 14 12 62 12 36 0 66 2 66 5 0 2 -10 25 -22
49 l-22 45 -60 3 c-49 2 -61 7 -64 21 -3 14 4 17 47 17 28 0 51 4 51 9 0 5
-16 50 -35 100 -19 49 -35 95 -35 101 0 36 31 -13 116 -181 101 -204 153 -273
238 -323 125 -73 299 -44 366 60 63 100 57 304 -16 495 -34 92 -54 107 -157
124 -113 18 -307 26 -384 15z"/>
<path d="M1766 1321 c-3 -4 4 -27 16 -51 63 -140 82 -371 40 -480 l-22 -54 22
-23 c38 -41 76 -46 378 -47 258 -1 288 1 313 17 31 20 36 57 12 81 -17 16 -35
20 -165 36 -165 20 -282 43 -287 57 -3 8 -4 16 -1 18 2 2 58 -5 123 -15 146
-24 303 -37 336 -30 31 7 39 54 12 69 -10 5 -86 21 -168 35 -187 32 -235 45
-235 62 0 17 -4 18 110 -6 156 -32 247 -42 270 -30 44 24 20 45 -106 91 -156
57 -158 59 -151 125 l6 54 -47 0 c-71 0 -165 17 -282 52 -141 41 -169 47 -174
39z"/>
<path d="M2442 1275 c-7 -8 -9 -15 -4 -15 5 0 15 7 22 15 16 19 -1 19 -18 0z"/>
<path d="M2358 1223 c7 -3 16 -2 19 1 4 3 -2 6 -13 5 -11 0 -14 -3 -6 -6z"/>
</g>
</svg>
